<mxfile host="app.diagrams.net" modified="2023-11-29T18:34:46.210Z" agent="Mozilla/5.0 (Windows NT 10.0; Win64; x64) AppleWebKit/537.36 (KHTML, like Gecko) Chrome/119.0.0.0 Safari/537.36" etag="bh2NojR08WbzdummphfI" version="22.1.5" type="github">
  <diagram name="Page-1" id="xCTQDYpOKtpxga4Kb0XR">
    <mxGraphModel dx="1221" dy="769" grid="1" gridSize="10" guides="1" tooltips="1" connect="1" arrows="1" fold="1" page="1" pageScale="1" pageWidth="850" pageHeight="1100" math="0" shadow="0">
      <root>
        <mxCell id="0" />
        <mxCell id="1" parent="0" />
        <mxCell id="sJ5SFNts9HqBhsy3RB6z-2" value="App.js&lt;br&gt;&lt;br&gt;Declare a state to hold the database&lt;br&gt;&lt;br&gt;Fetch the database&lt;br&gt;&lt;br&gt;Declare function to add a planet (post to db, then update state with the response)" style="rounded=0;whiteSpace=wrap;html=1;" vertex="1" parent="1">
          <mxGeometry x="280" y="10" width="240" height="120" as="geometry" />
        </mxCell>
        <mxCell id="sJ5SFNts9HqBhsy3RB6z-3" value="Registry.js&lt;br&gt;&lt;br&gt;Declare a state for the search field" style="rounded=0;whiteSpace=wrap;html=1;" vertex="1" parent="1">
          <mxGeometry x="110" y="170" width="310" height="120" as="geometry" />
        </mxCell>
        <mxCell id="sJ5SFNts9HqBhsy3RB6z-4" value="Header.js" style="rounded=0;whiteSpace=wrap;html=1;" vertex="1" parent="1">
          <mxGeometry x="640" y="170" width="120" height="60" as="geometry" />
        </mxCell>
        <mxCell id="sJ5SFNts9HqBhsy3RB6z-5" value="Search.js&lt;br&gt;&lt;br&gt;onChange call setSearch(e.target.value)" style="rounded=0;whiteSpace=wrap;html=1;" vertex="1" parent="1">
          <mxGeometry x="50" y="450" width="240" height="60" as="geometry" />
        </mxCell>
        <mxCell id="sJ5SFNts9HqBhsy3RB6z-6" value="NewPlanetForm.js&lt;br&gt;&lt;br&gt;Declare state for form fields&lt;br&gt;&lt;br&gt;onSubmit call the function to add a planet" style="rounded=0;whiteSpace=wrap;html=1;" vertex="1" parent="1">
          <mxGeometry x="340" y="450" width="160" height="140" as="geometry" />
        </mxCell>
        <mxCell id="sJ5SFNts9HqBhsy3RB6z-7" value="PlanetList.js&lt;br&gt;&lt;br&gt;filter and map the planets array into Planet components" style="rounded=0;whiteSpace=wrap;html=1;" vertex="1" parent="1">
          <mxGeometry x="560" y="450" width="200" height="90" as="geometry" />
        </mxCell>
        <mxCell id="sJ5SFNts9HqBhsy3RB6z-8" value="Planet.js" style="rounded=0;whiteSpace=wrap;html=1;" vertex="1" parent="1">
          <mxGeometry x="340" y="660" width="120" height="60" as="geometry" />
        </mxCell>
        <mxCell id="sJ5SFNts9HqBhsy3RB6z-9" value="Planet.js" style="rounded=0;whiteSpace=wrap;html=1;" vertex="1" parent="1">
          <mxGeometry x="530" y="660" width="120" height="60" as="geometry" />
        </mxCell>
        <mxCell id="sJ5SFNts9HqBhsy3RB6z-10" value="Planet.js" style="rounded=0;whiteSpace=wrap;html=1;" vertex="1" parent="1">
          <mxGeometry x="700" y="660" width="120" height="60" as="geometry" />
        </mxCell>
        <mxCell id="sJ5SFNts9HqBhsy3RB6z-11" value="" style="endArrow=classic;html=1;rounded=0;exitX=0.279;exitY=1.003;exitDx=0;exitDy=0;entryX=0.687;entryY=-0.031;entryDx=0;entryDy=0;entryPerimeter=0;exitPerimeter=0;" edge="1" parent="1" source="sJ5SFNts9HqBhsy3RB6z-2" target="sJ5SFNts9HqBhsy3RB6z-3">
          <mxGeometry width="50" height="50" relative="1" as="geometry">
            <mxPoint x="230" y="330" as="sourcePoint" />
            <mxPoint x="280" y="280" as="targetPoint" />
          </mxGeometry>
        </mxCell>
        <mxCell id="sJ5SFNts9HqBhsy3RB6z-12" value="Pass down the database state and the function to add a planet" style="text;html=1;strokeColor=none;fillColor=none;align=center;verticalAlign=middle;whiteSpace=wrap;rounded=0;" vertex="1" parent="1">
          <mxGeometry x="110" y="140" width="220" height="30" as="geometry" />
        </mxCell>
        <mxCell id="sJ5SFNts9HqBhsy3RB6z-13" value="" style="endArrow=classic;html=1;rounded=0;exitX=1;exitY=1;exitDx=0;exitDy=0;" edge="1" parent="1" source="sJ5SFNts9HqBhsy3RB6z-3">
          <mxGeometry width="50" height="50" relative="1" as="geometry">
            <mxPoint x="530" y="500" as="sourcePoint" />
            <mxPoint x="580" y="450" as="targetPoint" />
          </mxGeometry>
        </mxCell>
        <mxCell id="sJ5SFNts9HqBhsy3RB6z-14" value="Pass down database state, search state" style="text;html=1;strokeColor=none;fillColor=none;align=center;verticalAlign=middle;whiteSpace=wrap;rounded=0;" vertex="1" parent="1">
          <mxGeometry x="500" y="340" width="120" height="30" as="geometry" />
        </mxCell>
        <mxCell id="sJ5SFNts9HqBhsy3RB6z-16" value="" style="endArrow=classic;html=1;rounded=0;entryX=0.5;entryY=0;entryDx=0;entryDy=0;exitX=0.5;exitY=1;exitDx=0;exitDy=0;" edge="1" parent="1" source="sJ5SFNts9HqBhsy3RB6z-7" target="sJ5SFNts9HqBhsy3RB6z-8">
          <mxGeometry width="50" height="50" relative="1" as="geometry">
            <mxPoint x="400" y="420" as="sourcePoint" />
            <mxPoint x="450" y="370" as="targetPoint" />
          </mxGeometry>
        </mxCell>
        <mxCell id="sJ5SFNts9HqBhsy3RB6z-18" value="" style="endArrow=classic;html=1;rounded=0;entryX=0.5;entryY=0;entryDx=0;entryDy=0;exitX=0.5;exitY=1;exitDx=0;exitDy=0;" edge="1" parent="1" source="sJ5SFNts9HqBhsy3RB6z-7" target="sJ5SFNts9HqBhsy3RB6z-9">
          <mxGeometry width="50" height="50" relative="1" as="geometry">
            <mxPoint x="640" y="510" as="sourcePoint" />
            <mxPoint x="410" y="670" as="targetPoint" />
          </mxGeometry>
        </mxCell>
        <mxCell id="sJ5SFNts9HqBhsy3RB6z-19" value="" style="endArrow=classic;html=1;rounded=0;entryX=0.5;entryY=0;entryDx=0;entryDy=0;exitX=0.5;exitY=1;exitDx=0;exitDy=0;" edge="1" parent="1" source="sJ5SFNts9HqBhsy3RB6z-7" target="sJ5SFNts9HqBhsy3RB6z-10">
          <mxGeometry width="50" height="50" relative="1" as="geometry">
            <mxPoint x="650" y="520" as="sourcePoint" />
            <mxPoint x="600" y="670" as="targetPoint" />
          </mxGeometry>
        </mxCell>
        <mxCell id="sJ5SFNts9HqBhsy3RB6z-20" value="" style="endArrow=classic;html=1;rounded=0;entryX=1;entryY=1;entryDx=0;entryDy=0;exitX=0;exitY=0;exitDx=0;exitDy=0;" edge="1" parent="1" source="sJ5SFNts9HqBhsy3RB6z-4" target="sJ5SFNts9HqBhsy3RB6z-2">
          <mxGeometry width="50" height="50" relative="1" as="geometry">
            <mxPoint x="520" y="280" as="sourcePoint" />
            <mxPoint x="570" y="230" as="targetPoint" />
          </mxGeometry>
        </mxCell>
        <mxCell id="sJ5SFNts9HqBhsy3RB6z-21" value="" style="endArrow=classic;html=1;rounded=0;entryX=0.75;entryY=0;entryDx=0;entryDy=0;exitX=0.408;exitY=1.019;exitDx=0;exitDy=0;exitPerimeter=0;" edge="1" parent="1" source="sJ5SFNts9HqBhsy3RB6z-3" target="sJ5SFNts9HqBhsy3RB6z-5">
          <mxGeometry width="50" height="50" relative="1" as="geometry">
            <mxPoint x="160" y="450" as="sourcePoint" />
            <mxPoint x="210" y="400" as="targetPoint" />
          </mxGeometry>
        </mxCell>
        <mxCell id="sJ5SFNts9HqBhsy3RB6z-22" value="pass down the search state and the set search function" style="text;html=1;strokeColor=none;fillColor=none;align=center;verticalAlign=middle;whiteSpace=wrap;rounded=0;" vertex="1" parent="1">
          <mxGeometry x="90" y="330" width="140" height="100" as="geometry" />
        </mxCell>
        <mxCell id="sJ5SFNts9HqBhsy3RB6z-23" value="Pass down {name, climate, terrain, population}" style="text;html=1;strokeColor=none;fillColor=none;align=center;verticalAlign=middle;whiteSpace=wrap;rounded=0;" vertex="1" parent="1">
          <mxGeometry x="620" y="580" width="100" height="70" as="geometry" />
        </mxCell>
        <mxCell id="sJ5SFNts9HqBhsy3RB6z-24" value="" style="endArrow=classic;html=1;rounded=0;exitX=0.683;exitY=0.986;exitDx=0;exitDy=0;entryX=0.169;entryY=-0.007;entryDx=0;entryDy=0;entryPerimeter=0;exitPerimeter=0;" edge="1" parent="1" source="sJ5SFNts9HqBhsy3RB6z-3" target="sJ5SFNts9HqBhsy3RB6z-6">
          <mxGeometry width="50" height="50" relative="1" as="geometry">
            <mxPoint x="481.07" y="607.72" as="sourcePoint" />
            <mxPoint x="420.00000000000006" y="450" as="targetPoint" />
          </mxGeometry>
        </mxCell>
        <mxCell id="sJ5SFNts9HqBhsy3RB6z-25" value="Pass down the function to add a planet" style="text;html=1;strokeColor=none;fillColor=none;align=center;verticalAlign=middle;whiteSpace=wrap;rounded=0;" vertex="1" parent="1">
          <mxGeometry x="350" y="350" width="80" height="30" as="geometry" />
        </mxCell>
      </root>
    </mxGraphModel>
  </diagram>
</mxfile>
